<?xml version="1.0" encoding="utf-8"?>
<!-- Generator: Adobe Illustrator 26.0.3, SVG Export Plug-In . SVG Version: 6.00 Build 0)  -->
<svg version="1.1" id="Camada_1" xmlns="http://www.w3.org/2000/svg" xmlns:xlink="http://www.w3.org/1999/xlink" x="0px" y="0px"
	 viewBox="0 0 623.5 391" style="enable-background:new 0 0 623.5 391;" xml:space="preserve">
<style type="text/css">
	.st0{fill-rule:evenodd;clip-rule:evenodd;fill:#FFFFFF;}
	.st1{fill:#FFFFFF;}
	.st2{fill-rule:evenodd;clip-rule:evenodd;fill:#F0807B;}
	.st3{fill:#F0807B;}
	.st4{fill-rule:evenodd;clip-rule:evenodd;fill:#1B1939;}
	.st5{fill:none;stroke:#12100C;stroke-width:0.5669;stroke-miterlimit:22.9256;}
	.st6{fill:#12100C;}
</style>
<path class="st1" d="M276.3,0C330,0,378.7,21.9,413.9,57.3c35.2,35.4,57,84.2,57,138.2s-21.8,102.8-57,138.2
	C378.7,369.1,330,391,276.3,391S174,369.1,138.8,333.7c-22.7-22.8-39.8-51.2-49.1-83h6.3c9.1,30.1,25.5,57.1,47.1,78.8
	c34.1,34.3,81.2,55.5,133.3,55.5s99.2-21.2,133.3-55.5c34.1-34.3,55.2-81.7,55.2-134c0-52.3-21.1-99.7-55.2-134
	C375.5,27.2,328.4,6,276.3,6S177.1,27.2,143,61.5c-21.5,21.6-37.8,48.4-46.9,78.3h-6.3c9.3-31.6,26.4-59.8,49-82.5
	C174,21.9,222.6,0,276.3,0"/>
<path class="st1" d="M314.5,40.5c43.2,0,82.3,17.6,110.6,46c28.3,28.4,45.8,67.7,45.8,111.1c0,43.4-17.5,82.7-45.8,111.1
	c-28.3,28.4-67.4,46-110.6,46c-43.2,0-82.3-17.6-110.6-46c-16.2-16.2-28.8-36-36.7-58.1h6.4c7.6,20.4,19.5,38.7,34.5,53.8
	c27.2,27.3,64.8,44.3,106.3,44.3s79.1-16.9,106.3-44.3c27.2-27.3,44-65.1,44-106.9c0-41.7-16.8-79.5-44-106.9
	C393.6,63.4,356,46.5,314.5,46.5s-79.1,16.9-106.3,44.3c-13.9,13.9-25,30.5-32.6,49h-6.5c7.9-20.1,19.9-38.2,34.9-53.2
	C232.2,58.1,271.3,40.5,314.5,40.5"/>
<path class="st1" d="M355.5,81c31.8,0,60.7,13,81.5,34c20.9,21,33.8,49.9,33.8,81.9s-12.9,61-33.8,81.9c-20.9,21-49.7,34-81.5,34
	c-31.8,0-60.7-13-81.5-34c-8.2-8.3-15.2-17.7-20.6-28.2h6.8c4.9,8.8,11,16.9,18.1,24c19.8,19.9,47.1,32.2,77.3,32.2
	c30.2,0,57.5-12.3,77.3-32.2c19.8-19.9,32-47.4,32-77.7c0-30.4-12.2-57.8-32-77.7C413.1,99.3,385.7,87,355.5,87
	c-30.2,0-57.5,12.3-77.3,32.2c-6.1,6.2-11.6,13.1-16.1,20.6h-6.9c5.1-9.1,11.5-17.4,18.8-24.8C294.9,94,323.7,81,355.5,81"/>
<path class="st1" d="M387.3,112.2c23.1,0,44,9.4,59.1,24.6c15.1,15.2,24.5,36.2,24.5,59.4s-9.4,44.2-24.5,59.4
	c-15.1,15.2-36,24.6-59.1,24.6c-23.1,0-44-9.4-59.1-24.6c-1.5-1.5-3-3.1-4.4-4.8h8.1c0.2,0.2,0.4,0.4,0.6,0.6
	c14,14.1,33.4,22.8,54.8,22.8c21.4,0,40.8-8.7,54.8-22.8c14-14.1,22.7-33.6,22.7-55.1c0-21.5-8.7-41-22.7-55.1
	c-14-14.1-33.4-22.8-54.8-22.8c-20.8,0-39.7,8.2-53.6,21.6h-8.3c0.9-1,1.9-2,2.9-3C343.3,121.6,364.2,112.2,387.3,112.2"/>
<path class="st2" d="M459.1,192.6c0.2,30.7-1,62.1-2.4,72.4l-1,7.4c-0.1,1.3,0.2,0.9,0.5,2c0.3,1.2-0.4,0.6,0.6,1.8
	c0.4,0.5,0.7,0.8,1.3,1.4c2.8,2.8,6.8,4.6,10.7,6.1c5.5,2.2,5.5,1.4,7.7-0.6c3.9-3.5,7.9-6.4,12.4-9.7c21.9-16,57.4-38.6,81.1-51.7
	c13-7.1,30.7-16.3,44.7-22c8.6-3.5,8.3-10.8,0-14.2c-14-5.7-31.8-14.8-44.7-22c-23.6-13-59.2-35.6-81.1-51.7
	c-4.5-3.3-8.5-6.2-12.4-9.7c-2.3-2.1-2.2-2.8-7.7-0.6c-3.9,1.5-7.9,3.4-10.7,6.1c-0.6,0.6-0.9,0.9-1.3,1.4c-1,1.2-0.3,0.7-0.6,1.8
	c-0.3,1-0.6,0.6-0.5,2l1,7.4C458.1,130.5,459.2,161.9,459.1,192.6 M530.2,227.3c-5.9,3.5-56.8,34.6-58.8,35.3c0-2.4,0.5-5.8,0.7-8.3
	c1.7-18.1,2.5-38.4,2.7-56.7c0-1.7,0-3.4,0-5c0-1.7,0-3.4,0-5c-0.1-18.2-1-38.6-2.7-56.7c-0.2-2.5-0.7-5.8-0.7-8.3
	c2,0.6,52.9,31.7,58.8,35.3c9.7,5.8,19.6,12,29.5,17.3l22.9,12.4c1.8,1,6.1,3.1,6.7,5c-0.6,1.9-4.9,4-6.7,5L559.7,210
	C549.8,215.3,540,221.6,530.2,227.3z"/>
<path class="st1" d="M324.4,149.2h-23.9v92.1h23.9v-35h32.5v35h23.9v-92.1h-23.9v34.1h-32.5V149.2z M251.6,147.5
	c-27.2,0-46.4,19.7-46.4,47.8c0,28,19.2,47.8,46.4,47.8c17.4,0,30.8-8.2,39.1-21.2l-19.6-14.3c-4.8,7.6-11.5,11.6-19.8,11.6
	c-10.9,0-21.3-8.1-21.3-23.8c0-14.1,9-23.8,21.2-23.8c8.5,0,15.1,4,19.3,11.6l21.2-12.2C284.1,156.1,268.8,147.5,251.6,147.5z
	 M161,174.2l9,27.2h-18L161,174.2z M175.3,149.2h-28.1l-33.3,92.1h24.9l5.8-17.5h32.8l5.8,17.5h25.3L175.3,149.2z M107.3,149.2H74.3
	l-17.6,55.4L39,149.2H5.9v92.1h23.9v-57.6l14.2,49.1h25.5l14.2-49.1v57.6h23.9V149.2z"/>
<polygon class="st3" points="430.9,147.7 389.2,164.1 389.2,187.7 407.7,180.8 407.7,241.3 430.9,241.3 "/>
</svg>
